<svg width="392" height="99" viewBox="0 0 392 99" fill="none" xmlns="http://www.w3.org/2000/svg">
<path d="M283.901 96.9012C280.601 96.9012 277.601 96.9012 274.301 96.8012C274.401 76.4012 274.601 56.1012 274.701 35.7012C278.501 35.7012 282.301 35.7012 286.001 35.8012C288.501 35.9012 291.101 35.9012 293.601 36.2012C298.601 36.9012 301.901 39.9012 302.801 44.8012C303.701 49.6012 303.701 54.4012 302.801 59.2012C302.001 63.2012 300.701 64.8012 297.401 67.0012C297.401 67.1012 297.401 67.3012 297.501 67.3012C301.301 69.2012 302.801 72.5012 303.101 76.5012C303.401 80.6012 303.201 84.7012 303.301 88.8012C303.401 91.5012 303.601 94.1012 303.801 97.0012C301.001 97.0012 297.801 97.0012 294.601 97.0012C293.501 94.5012 293.701 92.0012 293.701 89.4012C293.701 85.8012 293.801 82.2012 293.701 78.7012C293.701 77.5012 293.401 76.3012 293.001 75.1012C292.501 73.7012 291.401 72.7012 290.001 72.4012C288.201 72.1012 286.301 72.0012 284.201 71.8012C284.001 80.3012 284.001 88.5012 283.901 96.9012ZM284.201 63.4012C286.201 63.3012 288.001 63.3012 289.801 63.1012C291.801 62.9012 293.301 61.5012 293.401 59.6012C293.701 55.8012 293.701 51.9012 293.501 48.0012C293.401 46.3012 292.201 44.9012 290.301 44.7012C288.301 44.5012 286.401 44.5012 284.301 44.4012C284.201 50.8012 284.201 57.0012 284.201 63.4012Z" fill="white"/>
<path d="M391.899 84.9996C391.499 86.6996 391.199 88.4996 390.599 90.0996C388.599 95.3996 384.399 97.7996 378.999 98.0996C376.399 98.1996 373.699 97.8996 371.199 97.1996C365.799 95.3996 363.299 91.0996 362.899 85.6996C362.599 81.4996 362.699 77.1996 362.799 72.9996C362.799 66.0996 362.799 59.0996 362.899 52.1996C362.999 49.7996 363.199 47.2996 363.799 44.8996C365.099 40.0996 368.399 37.2996 373.199 36.1996C376.099 35.5996 379.099 35.4996 381.899 36.2996C387.799 37.7996 391.399 41.9996 391.799 48.2996C392.099 52.5996 391.899 56.8996 391.899 61.1996C391.899 67.9996 391.799 74.7996 391.799 81.6996C391.799 82.8996 391.699 84.0996 391.699 85.1996C391.799 84.9996 391.799 84.9996 391.899 84.9996ZM382.199 83.9996C382.199 83.5996 382.299 83.1996 382.299 82.7996C382.399 72.6996 382.499 62.5996 382.499 52.4996C382.499 50.9996 382.499 49.3996 382.199 47.9996C381.699 45.4996 379.899 44.3996 377.099 44.4996C374.799 44.5996 373.199 45.9996 372.799 48.3996C372.599 49.5996 372.499 50.8996 372.499 52.0996C372.399 60.2996 372.399 68.4996 372.399 76.7996C372.399 79.6996 372.299 82.6996 372.599 85.5996C372.799 88.0996 374.399 89.3996 376.799 89.5996C380.099 89.6996 381.899 87.9996 382.199 83.9996Z" fill="white"/>
<path d="M68.4016 20.9996C68.3016 33.1996 68.2016 45.2996 68.2016 57.7996C65.7016 57.7996 63.4016 57.7996 60.7016 57.7996C60.6016 55.7996 60.6016 53.7996 60.6016 51.8996C60.6016 43.8996 60.7016 35.8996 60.7016 27.8996C60.8016 21.4996 60.8016 15.0996 60.9016 8.69961C60.9016 6.99961 61.0016 5.39961 60.9016 3.69961C60.8016 2.49961 61.3016 2.09961 62.3016 2.09961C65.3016 2.09961 68.3016 2.19961 71.3016 2.19961C72.7016 2.19961 73.3016 2.79961 73.5016 4.09961C75.3016 15.8996 77.1016 27.6996 78.9016 39.4996C78.9016 39.7996 79.1016 40.0996 79.4016 40.3996C80.0016 36.6996 80.7016 32.9996 81.3016 29.2996C82.6016 20.8996 83.9016 12.3996 85.2016 3.99961C85.3016 3.09961 85.5016 2.39961 86.6016 2.39961C90.2016 2.39961 93.9016 2.49961 97.7016 2.49961C97.6016 21.0996 97.5016 39.4996 97.3016 58.0996C94.5016 58.0996 91.9016 58.1996 89.1016 58.1996C89.2016 45.7996 89.2016 33.5996 89.3016 21.4996C89.2016 21.4996 89.0016 21.4996 88.9016 21.4996C88.5016 24.0996 88.0016 26.6996 87.6016 29.2996C86.2016 38.0996 84.9016 46.8996 83.5016 55.5996C83.1016 58.1996 83.0016 58.1996 80.5016 58.0996C79.1016 57.9996 77.7016 58.0996 76.3016 58.0996C75.3016 58.0996 74.8016 57.7996 74.6016 56.6996C73.0016 46.2996 71.3016 35.8996 69.7016 25.4996C69.5016 24.0996 69.2016 22.6996 69.0016 21.1996C68.7016 20.9996 68.6016 20.9996 68.4016 20.9996Z" fill="#FFC813"/>
<path d="M246.702 35.5C251.302 35.5 255.902 35.5 260.802 35.6C263.902 55.9 267.102 76.3 270.202 96.8C266.902 96.8 263.702 96.7 260.502 96.7C259.902 92.9 259.402 89.3 258.902 85.6C255.002 85.6 251.202 85.5 247.202 85.5C246.602 89.2 246.002 92.8 245.402 96.6C242.502 96.6 239.602 96.6 236.602 96.5C239.902 76.2 243.302 55.9 246.702 35.5ZM257.602 77.3C256.202 67.2 254.702 57.3 253.302 47.4C253.202 47.4 253.102 47.4 253.002 47.5C251.502 57.4 249.902 67.3 248.402 77.3C251.502 77.3 254.502 77.3 257.602 77.3Z" fill="white"/>
<path d="M220.999 84.3012C223.499 68.1012 225.999 51.9012 228.499 35.4012C231.299 35.4012 234.199 35.4012 237.299 35.4012C233.999 55.7012 230.799 76.0012 227.499 96.5012C222.699 96.5012 217.999 96.5012 213.199 96.4012C210.199 76.0012 207.199 55.6012 204.199 35.2012C207.499 35.2012 210.599 35.2012 213.899 35.3012C216.199 51.7012 218.499 67.9012 220.799 84.2012C220.799 84.3012 220.899 84.3012 220.999 84.3012Z" fill="white"/>
<path d="M319.001 70.5008C319.001 76.6008 318.901 82.4008 318.901 88.4008C324.501 88.4008 329.901 88.5008 335.501 88.5008C335.501 91.4008 335.501 94.2008 335.501 97.2008C326.701 97.1008 318.101 97.1008 309.301 97.0008C309.401 76.6008 309.601 56.4008 309.701 35.8008C318.501 35.9008 327.101 35.9008 335.901 36.0008C335.901 39.0008 335.901 41.7008 335.901 44.7008C330.401 44.7008 324.901 44.7008 319.301 44.6008C319.301 50.3008 319.201 55.9008 319.201 61.6008C323.601 61.6008 327.901 61.7008 332.401 61.7008C332.401 64.5008 332.401 67.4008 332.401 70.4008C327.801 70.5008 323.501 70.5008 319.001 70.5008Z" fill="white"/>
<path d="M143.3 58.3012C140.8 58.3012 138.7 58.4012 136.5 58.2012C136.1 58.2012 135.5 57.2012 135.5 56.7012C135.5 51.0012 135.5 45.2012 135.6 39.5012C135.6 30.4012 135.7 21.4012 135.7 12.3012C135.7 9.50118 135.8 6.70118 135.7 3.90118C135.7 2.90118 136.2 2.60117 137 2.60117C139.9 2.60117 142.9 2.50117 145.8 2.70117C146.3 2.70117 147 3.70118 147.1 4.30118C148.4 9.10118 149.7 14.0012 150.9 18.8012C152.1 23.4012 153.3 28.1012 154.5 32.7012C154.6 33.2012 154.9 33.7012 155.4 34.1012C155.5 23.8012 155.5 13.4012 155.6 2.80118C158.2 2.70118 160.6 2.70117 163.4 2.60117C163.3 21.2012 163.2 39.6012 163 58.4012C160.1 58.4012 157.6 58.4012 155 58.2012C154.5 58.2012 153.8 57.4012 153.7 56.8012C151.7 49.3012 149.7 41.7012 147.7 34.2012C146.4 29.4012 145.2 24.7012 143.9 20.0012C143.7 20.0012 143.6 20.0012 143.4 20.0012C143.5 32.7012 143.4 45.3012 143.3 58.3012Z" fill="#FFC813"/>
<path d="M197.401 58.6012C194.801 58.6012 192.401 58.6012 189.901 58.7012C188.501 58.7012 188.501 57.6012 188.401 56.7012C188.001 54.1012 187.701 51.4012 187.201 48.5012C183.601 48.5012 180.201 48.5012 176.401 48.4012C176.001 51.2012 175.501 53.9012 175.201 56.6012C175.001 58.1012 174.501 58.7012 172.901 58.5012C171.001 58.3012 169.101 58.4012 166.801 58.3012C167.401 54.8012 167.901 51.5012 168.401 48.2012C169.401 42.5012 170.301 36.8012 171.301 31.0012C172.801 22.0012 174.201 13.1012 175.701 4.10117C175.901 3.20117 176.201 2.70117 177.201 2.70117C180.701 2.70117 184.101 2.70117 187.601 2.70117C189.301 2.70117 189.001 4.10117 189.101 5.00117C190.201 11.9012 191.201 18.8012 192.301 25.8012C193.901 36.2012 195.501 46.5012 197.001 56.9012C197.301 57.4012 197.301 57.9012 197.401 58.6012ZM177.701 40.8012C180.701 40.8012 183.301 40.9012 186.201 40.9012C184.901 31.9012 183.701 23.2012 182.401 14.5012C182.201 14.5012 182.001 14.5012 181.901 14.5012C180.501 23.3012 179.101 31.9012 177.701 40.8012Z" fill="#FFC813"/>
<path d="M131.699 58.1994C128.599 58.1994 125.799 58.1994 122.899 58.1994C122.499 55.2994 121.999 52.4994 121.699 49.7994C121.499 48.4994 121.099 47.9994 119.699 48.0994C117.399 48.1994 114.999 48.0994 112.699 47.9994C111.299 47.8994 110.499 48.2994 110.399 49.8994C110.199 52.1994 109.699 54.4994 109.299 56.7994C109.199 57.2994 108.699 57.9994 108.299 57.9994C105.999 58.0994 103.699 57.9994 101.199 57.9994C101.499 55.9994 101.699 54.2994 101.999 52.5994C103.799 41.4994 105.599 30.3994 107.499 19.1994C108.299 14.1994 109.299 9.19938 110.099 4.19938C110.299 2.89938 110.699 2.29939 112.099 2.39939C115.299 2.49939 118.499 2.39939 121.699 2.39939C122.799 2.39939 123.299 2.79938 123.499 3.99938C125.399 16.9994 127.399 29.9994 129.399 42.8994C129.999 47.9994 130.899 52.9994 131.699 58.1994ZM116.399 13.6994C116.299 13.6994 116.199 13.6994 116.099 13.6994C114.699 22.1994 113.299 30.5994 111.999 39.0994C111.899 39.4994 112.399 40.3994 112.699 40.3994C115.099 40.4994 117.599 40.4994 120.299 40.4994C118.899 31.3994 117.699 22.4994 116.399 13.6994Z" fill="#FFC813"/>
<path d="M18.8001 17.0003C18.7001 15.5003 18.7001 14.4003 18.6001 13.3003C18.4001 10.7003 17.1001 9.30027 14.6001 9.20027C12.2001 9.10027 10.6001 10.3003 10.2001 12.9003C9.50014 17.2003 11.3001 20.6003 14.2001 23.6003C16.7001 26.1003 19.3001 28.5003 21.8001 31.0003C27.1001 36.5003 28.6001 45.6003 25.2001 52.2003C22.8001 57.0003 18.4001 58.3003 13.6001 58.2003C5.10014 58.0003 0.800142 53.1003 0.900142 44.5003C0.900142 40.8003 1.00014 40.7003 4.80014 40.6003C6.20014 40.6003 7.60014 40.7003 9.10014 40.8003C9.20014 42.7003 9.10014 44.4003 9.30014 46.1003C9.70014 49.3003 12.2001 50.8003 15.3001 49.8003C17.2001 49.2003 17.9001 47.8003 18.1001 46.1003C18.7001 41.7003 16.7001 38.3003 13.7001 35.4003C11.5001 33.2003 9.20014 31.1003 7.00014 28.8003C1.40014 23.0003 0.000141978 16.2003 2.30014 8.60027C3.60014 4.20027 8.20014 1.10027 13.5001 1.00027C18.0001 0.900273 22.1001 2.00027 24.9001 6.00027C26.9001 9.00027 27.1001 12.4003 27.2001 15.8003C27.2001 16.2003 26.5001 16.8003 26.1001 16.9003C23.6001 17.1003 21.3001 17.0003 18.8001 17.0003Z" fill="#FFC813"/>
<path d="M338.5 97.2996C338.5 94.2996 338.5 91.4996 338.6 88.4996C339.7 88.4996 340.7 88.5996 341.6 88.5996C345.4 88.6996 347.2 87.0996 347.4 83.2996C347.6 77.7996 347.5 72.3996 347.6 66.8996C347.6 60.0996 347.7 53.3996 347.7 46.5996C347.7 43.0996 347.8 39.6996 347.8 36.0996C351 36.0996 354.1 36.0996 357.4 36.1996C357.4 39.5996 357.4 42.8996 357.4 46.0996C357.4 54.2996 357.3 62.3996 357.2 70.5996C357.2 75.2996 357.1 79.9996 356.9 84.6996C356.8 86.3996 356.4 88.0996 355.9 89.6996C354.1 94.5996 350.1 97.2996 344.4 97.3996C342.4 97.4996 340.6 97.3996 338.5 97.2996Z" fill="white"/>
<path d="M55.5016 49.9C55.5016 52.6 55.4016 54.9 55.4016 57.6C53.1016 57.7 50.9016 57.8 48.7016 57.8C43.7016 57.8 38.7016 57.6 33.7016 57.7C32.1016 57.7 31.6016 57.1 31.6016 55.6C31.7016 51.3 31.6016 46.9 31.7016 42.6C31.7016 34.7 31.8016 26.9 31.9016 19C31.9016 14 32.0016 9 32.0016 4C32.0016 2.5 32.6016 2 34.0016 2C38.3016 2 42.7016 2 47.1016 2C49.4016 2 51.6016 2 53.9016 2C55.3016 2 56.0016 2.4 55.8016 4C55.6016 6 55.7016 8 55.6016 10.1C50.5016 10.1 45.7016 10.1 40.6016 10.1C40.6016 11.7 40.6016 13 40.6016 14.4C40.6016 17.5 40.6016 20.7 40.5016 23.8C40.5016 25.3 41.0016 25.8 42.5016 25.7C45.4016 25.6 48.4016 25.7 51.3016 25.6C52.2016 25.6 52.6016 26 52.6016 27C52.5016 28.6 52.5016 30.2 52.5016 31.8C52.6016 33.2 51.9016 33.7 50.6016 33.6C47.7016 33.5 44.9016 33.6 42.0016 33.5C41.1016 33.5 40.5016 33.6 40.5016 34.6C40.4016 39.6 40.4016 44.6 40.3016 49.8C45.4016 49.8 50.3016 49.8 55.5016 49.9Z" fill="#FFC813"/>
<path d="M171.901 93.7002C171.901 92.2002 172.001 90.9002 172.001 89.5002C172.001 82.3002 171.901 75.1002 171.801 67.9002C171.801 66.7002 172.101 66.1002 173.401 66.2002C175.201 66.3002 176.901 66.2002 178.701 66.3002C183.001 66.5002 185.101 68.6002 185.101 72.9002C185.101 77.3002 185.201 81.7002 185.101 86.1002C185.101 87.4002 185.001 88.8002 184.601 90.1002C183.701 92.7002 181.601 93.7002 179.101 93.7002C176.801 93.8002 174.501 93.7002 171.901 93.7002ZM176.201 70.3002C176.201 76.8002 176.201 83.2002 176.301 89.7002C177.301 89.7002 178.101 89.7002 178.801 89.7002C180.201 89.6002 180.801 88.7002 180.801 87.5002C180.801 82.5002 180.801 77.4002 180.701 72.4002C180.701 71.0002 180.001 70.4002 178.601 70.3002C177.901 70.2002 177.201 70.3002 176.201 70.3002Z" fill="#FFC813"/>
<path d="M78.4984 93.4996C78.4984 84.2996 78.3984 75.2996 78.3984 66.0996C81.2984 66.1996 84.0984 66.0996 86.8984 66.3996C89.7984 66.6996 91.4984 68.6996 91.5984 71.7996C91.6984 75.9996 91.6984 80.1996 91.6984 84.2996C91.6984 85.5996 91.7984 86.8996 91.5984 88.1996C91.2984 91.2996 89.5984 92.9996 86.4984 93.4996C86.1984 93.4996 85.8984 93.5996 85.4984 93.5996C83.1984 93.4996 80.8984 93.4996 78.4984 93.4996ZM82.6984 89.6996C83.3984 89.6996 83.8984 89.5996 84.3984 89.5996C86.7984 89.5996 87.2984 88.9996 87.2984 86.4996C87.2984 82.3996 87.2984 78.1996 87.2984 74.0996C87.2984 70.2996 86.8984 69.9996 83.0984 69.9996C82.9984 69.9996 82.7984 70.0996 82.5984 70.1996C82.6984 76.6996 82.6984 83.0996 82.6984 89.6996Z" fill="white"/>
<path d="M193.098 93.9009C189.898 93.6009 187.898 91.8009 187.598 88.6009C187.298 85.3009 187.398 82.1009 187.298 78.8009C187.298 76.8009 187.298 74.8009 187.298 72.8009C187.198 67.3009 192.498 64.0009 197.398 66.6009C199.098 67.5009 200.198 69.1009 200.298 71.0009C200.498 74.6009 200.498 78.3009 200.598 81.9009C200.598 83.5009 200.498 85.1009 200.598 86.7009C200.598 91.6009 197.798 94.3009 193.098 93.9009ZM191.698 73.0009C191.698 75.5009 191.698 78.1009 191.698 80.6009C191.698 82.9009 191.698 85.1009 191.698 87.4009C191.698 88.9009 192.398 89.8009 193.598 90.0009C194.998 90.2009 196.098 89.4009 196.098 87.6009C196.198 83.6009 196.098 79.7009 196.098 75.7009C196.098 74.4009 196.098 73.0009 195.998 71.7009C195.898 70.6009 195.298 70.0009 194.098 69.9009C192.398 69.9009 191.798 70.5009 191.698 73.0009Z" fill="#FFC813"/>
<path d="M110.002 82.2001C109.202 82.1001 108.702 82.1001 108.102 82.0001C108.102 80.8001 108.002 79.5001 108.002 78.2001C110.002 78.2001 112.002 78.2001 114.102 78.2001C114.002 81.9001 114.002 85.3001 113.802 88.8001C113.602 91.4001 111.902 93.0001 109.302 93.6001C104.602 94.6001 101.402 92.1001 101.302 87.4001C101.202 82.4001 101.102 77.3001 101.202 72.3001C101.302 67.0001 106.102 64.2001 110.902 66.5001C113.302 67.7001 113.902 69.9001 114.102 72.3001C114.202 73.3001 114.102 74.2001 114.102 75.4001C112.802 75.4001 111.502 75.4001 110.202 75.4001C110.202 74.3001 110.102 73.1001 110.102 72.0001C110.002 70.5001 109.302 69.8001 107.902 69.8001C106.602 69.8001 105.702 70.6001 105.702 72.1001C105.702 77.4001 105.702 82.6001 105.802 87.9001C105.802 89.3001 106.602 89.9001 108.002 90.0001C109.302 90.0001 110.102 89.4001 110.202 88.0001C110.102 85.9001 110.002 84.1001 110.002 82.2001Z" fill="white"/>
<path d="M139.7 65.9004C141.8 65.9004 143.9 65.9004 146 65.9004C147.5 75.0004 149 84.0004 150.5 93.2004C149 93.2004 147.7 93.2004 146.2 93.3004C145.9 91.6004 145.6 90.0004 145.4 88.3004C143.7 88.3004 142 88.3004 140.2 88.3004C139.9 89.9004 139.7 91.5004 139.4 93.2004C138.2 93.2004 136.9 93.2004 135.5 93.3004C136.8 84.1004 138.2 75.1004 139.7 65.9004ZM142.8 71.8004C142.7 71.8004 142.6 71.8004 142.5 71.8004C141.9 76.0004 141.3 80.3004 140.7 84.6004C142.1 84.6004 143.4 84.6004 144.8 84.6004C144.1 80.2004 143.4 76.0004 142.8 71.8004Z" fill="white"/>
<path d="M127.301 69.9004C125.701 69.9004 124.301 69.9004 122.901 69.8004C122.901 68.5004 122.901 67.3004 122.801 65.9004C127.201 65.9004 131.501 65.9004 136.101 65.9004C136.101 67.2004 136.101 68.4004 136.101 69.8004C134.501 69.8004 133.201 69.9004 131.601 69.9004C131.601 77.7004 131.601 85.4004 131.601 93.3004C130.101 93.3004 128.801 93.3004 127.301 93.3004C127.401 85.5004 127.401 77.7004 127.301 69.9004Z" fill="white"/>
<path d="M152.199 65.9004C153.699 65.9004 154.899 65.9004 156.499 65.9004C156.499 73.7004 156.599 81.5004 156.599 89.3004C158.999 89.3004 161.299 89.3004 163.599 89.3004C163.599 90.7004 163.599 91.9004 163.699 93.2004C159.899 93.2004 156.199 93.2004 152.299 93.3004C152.299 84.2004 152.299 75.2004 152.199 65.9004Z" fill="white"/>
<path d="M116.699 66.1C118.099 66.1 119.499 66.1 120.999 66C120.999 75.1 121.099 84.1 121.099 93.3C119.699 93.3 118.299 93.3 116.799 93.3C116.799 84.3 116.699 75.2 116.699 66.1Z" fill="white"/>
<path d="M98.5992 93.4996C97.0992 93.4996 95.7992 93.4996 94.2992 93.4996C94.2992 84.3996 94.1992 75.3996 94.1992 66.1996C95.5992 66.1996 96.9992 66.1996 98.4992 66.0996C98.4992 75.1996 98.5992 84.1996 98.5992 93.4996Z" fill="white"/>
</svg>
